# Blender v2.80 (sub 75) OBJ File: 'hall.blend'
# www.blender.org
mtllib fluorescent_case.mtl
o Circle.001
v 0.068082 0.050000 0.000000
v 0.065913 0.050000 -0.038268
v 0.055465 0.050000 -0.070711
v 0.033192 0.050000 -0.092388
v 0.088082 0.050000 0.000000
v 0.086453 0.050000 -0.045922
v 0.072685 0.050000 -0.084853
v 0.043464 0.050000 -0.110866
v 0.068082 0.950000 0.000000
v 0.065913 0.950000 -0.038268
v 0.055465 0.950000 -0.070711
v 0.033192 0.950000 -0.092388
v 0.088082 0.950000 0.000000
v 0.086453 0.950000 -0.045922
v 0.072685 0.950000 -0.084853
v 0.043464 0.950000 -0.110866
v 0.000000 0.050000 -0.100000
v -0.068082 0.050000 0.000000
v -0.065913 0.050000 -0.038268
v -0.055465 0.050000 -0.070711
v -0.033192 0.050000 -0.092388
v 0.000000 0.050000 -0.120000
v -0.088082 0.050000 0.000000
v -0.086453 0.050000 -0.045922
v -0.072685 0.050000 -0.084853
v -0.043464 0.050000 -0.110866
v 0.000000 0.950000 -0.100000
v -0.068082 0.950000 0.000000
v -0.065913 0.950000 -0.038268
v -0.055465 0.950000 -0.070711
v -0.033192 0.950000 -0.092388
v 0.000000 0.950000 -0.120000
v -0.088082 0.950000 0.000000
v -0.086453 0.950000 -0.045922
v -0.072685 0.950000 -0.084853
v -0.043464 0.950000 -0.110866
vt 0.000000 0.000000
vt 0.000000 0.000000
vt 0.000000 0.000000
vt 0.000000 0.000000
vt 0.000000 0.000000
vt 0.000000 0.000000
vt 0.000000 0.000000
vt 0.000000 0.000000
vt 0.000000 0.000000
vt 0.000000 0.000000
vt 0.000000 0.000000
vt 0.000000 0.000000
vt 0.000000 0.000000
vt 0.000000 0.000000
vt 0.000000 0.000000
vt 0.000000 0.000000
vt 0.000000 0.000000
vt 0.000000 0.000000
vt 0.000000 0.000000
vt 0.000000 0.000000
vt 0.000000 0.000000
vt 0.000000 0.000000
vt 0.000000 0.000000
vt 0.000000 0.000000
vt 0.000000 0.000000
vt 0.000000 0.000000
vt 0.000000 0.000000
vt 0.000000 0.000000
vt 0.000000 0.000000
vt 0.000000 0.000000
vt 0.000000 0.000000
vt 0.000000 0.000000
vt 0.000000 0.000000
vt 0.000000 0.000000
vt 0.000000 0.000000
vt 0.000000 0.000000
vn 0.0000 -1.0000 0.0000
vn 0.0000 1.0000 0.0000
vn 0.2057 0.0000 -0.9786
vn 0.9994 0.0000 -0.0354
vn -0.9519 0.0000 0.3066
vn 0.9428 0.0000 -0.3334
vn -0.6975 0.0000 0.7166
vn 0.6649 0.0000 -0.7469
vn -0.2235 0.0000 0.9747
vn 0.0000 0.0000 1.0000
vn -0.9984 0.0000 0.0566
vn -0.2057 0.0000 -0.9786
vn -0.9994 0.0000 -0.0354
vn 0.9519 0.0000 0.3066
vn -0.9428 0.0000 -0.3334
vn 0.6975 0.0000 0.7166
vn -0.6649 0.0000 -0.7469
vn 0.2235 0.0000 0.9747
vn 0.9984 0.0000 0.0566
usemtl None
s off
f 4/1/1 8/2/1 7/3/1 3/4/1
f 2/5/1 6/6/1 5/7/1 1/8/1
f 17/9/1 22/10/1 8/2/1 4/1/1
f 3/4/1 7/3/1 6/6/1 2/5/1
f 12/11/2 11/12/2 15/13/2 16/14/2
f 10/15/2 9/16/2 13/17/2 14/18/2
f 27/19/2 12/11/2 16/14/2 32/20/2
f 11/12/2 10/15/2 14/18/2 15/13/2
f 8/2/3 22/10/3 32/20/3 16/14/3
f 5/7/4 6/6/4 14/18/4 13/17/4
f 3/4/5 2/5/5 10/15/5 11/12/5
f 6/6/6 7/3/6 15/13/6 14/18/6
f 4/1/7 3/4/7 11/12/7 12/11/7
f 7/3/8 8/2/8 16/14/8 15/13/8
f 17/9/9 4/1/9 12/11/9 27/19/9
f 1/8/10 5/7/10 13/17/10 9/16/10
f 2/5/11 1/8/11 9/16/11 10/15/11
f 21/21/1 20/22/1 25/23/1 26/24/1
f 19/25/1 18/26/1 23/27/1 24/28/1
f 17/9/1 21/21/1 26/24/1 22/10/1
f 20/22/1 19/25/1 24/28/1 25/23/1
f 31/29/2 36/30/2 35/31/2 30/32/2
f 29/33/2 34/34/2 33/35/2 28/36/2
f 27/19/2 32/20/2 36/30/2 31/29/2
f 30/32/2 35/31/2 34/34/2 29/33/2
f 26/24/12 36/30/12 32/20/12 22/10/12
f 23/27/13 33/35/13 34/34/13 24/28/13
f 20/22/14 30/32/14 29/33/14 19/25/14
f 24/28/15 34/34/15 35/31/15 25/23/15
f 21/21/16 31/29/16 30/32/16 20/22/16
f 25/23/17 35/31/17 36/30/17 26/24/17
f 17/9/18 27/19/18 31/29/18 21/21/18
f 18/26/10 28/36/10 33/35/10 23/27/10
f 19/25/19 29/33/19 28/36/19 18/26/19
o Cylinder.001
v 0.000000 0.090000 -0.035000
v 0.000000 0.110000 -0.035000
v 0.013394 0.090000 -0.032336
v 0.013394 0.110000 -0.032336
v 0.024749 0.090000 -0.024749
v 0.024749 0.110000 -0.024749
v 0.032336 0.090000 -0.013394
v 0.032336 0.110000 -0.013394
v 0.035000 0.090000 0.000000
v 0.035000 0.110000 0.000000
v 0.032336 0.090000 0.013394
v 0.032336 0.110000 0.013394
v 0.024749 0.090000 0.024749
v 0.024749 0.110000 0.024749
v 0.013394 0.090000 0.032336
v 0.013394 0.110000 0.032336
v 0.000000 0.090000 0.035000
v 0.000000 0.110000 0.035000
v -0.013394 0.090000 0.032336
v -0.013394 0.110000 0.032336
v -0.024749 0.090000 0.024749
v -0.024749 0.110000 0.024749
v -0.032336 0.090000 0.013394
v -0.032336 0.110000 0.013394
v -0.035000 0.090000 -0.000000
v -0.035000 0.110000 -0.000000
v -0.032336 0.090000 -0.013394
v -0.032336 0.110000 -0.013394
v -0.024749 0.090000 -0.024749
v -0.024749 0.110000 -0.024749
v -0.013394 0.090000 -0.032336
v -0.013394 0.110000 -0.032336
vt 1.000000 0.500000
vt 1.000000 1.000000
vt 0.937500 1.000000
vt 0.937500 0.500000
vt 0.875000 1.000000
vt 0.875000 0.500000
vt 0.812500 1.000000
vt 0.812500 0.500000
vt 0.750000 1.000000
vt 0.750000 0.500000
vt 0.687500 1.000000
vt 0.687500 0.500000
vt 0.625000 1.000000
vt 0.625000 0.500000
vt 0.562500 1.000000
vt 0.562500 0.500000
vt 0.500000 1.000000
vt 0.500000 0.500000
vt 0.437500 1.000000
vt 0.437500 0.500000
vt 0.375000 1.000000
vt 0.375000 0.500000
vt 0.312500 1.000000
vt 0.312500 0.500000
vt 0.250000 1.000000
vt 0.250000 0.500000
vt 0.187500 1.000000
vt 0.187500 0.500000
vt 0.125000 1.000000
vt 0.125000 0.500000
vt 0.341844 0.471731
vt 0.250000 0.490000
vt 0.158156 0.471731
vt 0.080294 0.419706
vt 0.028269 0.341844
vt 0.010000 0.250000
vt 0.028269 0.158156
vt 0.080294 0.080294
vt 0.158156 0.028269
vt 0.250000 0.010000
vt 0.341844 0.028269
vt 0.419706 0.080294
vt 0.471731 0.158156
vt 0.490000 0.250000
vt 0.471731 0.341844
vt 0.419706 0.419706
vt 0.062500 1.000000
vt 0.062500 0.500000
vt 0.000000 1.000000
vt 0.000000 0.500000
vt 0.750000 0.490000
vt 0.841844 0.471731
vt 0.919706 0.419706
vt 0.971731 0.341844
vt 0.990000 0.250000
vt 0.971731 0.158156
vt 0.919706 0.080294
vt 0.841844 0.028269
vt 0.750000 0.010000
vt 0.658156 0.028269
vt 0.580294 0.080294
vt 0.528269 0.158156
vt 0.510000 0.250000
vt 0.528269 0.341844
vt 0.580294 0.419706
vt 0.658156 0.471731
vn 0.1951 0.0000 -0.9808
vn 0.5556 0.0000 -0.8315
vn 0.8315 0.0000 -0.5556
vn 0.9808 0.0000 -0.1951
vn 0.9808 0.0000 0.1951
vn 0.8315 0.0000 0.5556
vn 0.5556 0.0000 0.8315
vn 0.1951 0.0000 0.9808
vn -0.1951 0.0000 0.9808
vn -0.5556 0.0000 0.8315
vn -0.8315 0.0000 0.5556
vn -0.9808 0.0000 0.1951
vn -0.9808 0.0000 -0.1951
vn -0.8315 0.0000 -0.5556
vn 0.0000 1.0000 -0.0000
vn -0.5556 0.0000 -0.8315
vn -0.1951 0.0000 -0.9808
vn 0.0000 -1.0000 0.0000
usemtl None
s off
f 37/37/20 38/38/20 40/39/20 39/40/20
f 39/40/21 40/39/21 42/41/21 41/42/21
f 41/42/22 42/41/22 44/43/22 43/44/22
f 43/44/23 44/43/23 46/45/23 45/46/23
f 45/46/24 46/45/24 48/47/24 47/48/24
f 47/48/25 48/47/25 50/49/25 49/50/25
f 49/50/26 50/49/26 52/51/26 51/52/26
f 51/52/27 52/51/27 54/53/27 53/54/27
f 53/54/28 54/53/28 56/55/28 55/56/28
f 55/56/29 56/55/29 58/57/29 57/58/29
f 57/58/30 58/57/30 60/59/30 59/60/30
f 59/60/31 60/59/31 62/61/31 61/62/31
f 61/62/32 62/61/32 64/63/32 63/64/32
f 63/64/33 64/63/33 66/65/33 65/66/33
f 40/67/34 38/68/34 68/69/34 66/70/34 64/71/34 62/72/34 60/73/34 58/74/34 56/75/34 54/76/34 52/77/34 50/78/34 48/79/34 46/80/34 44/81/34 42/82/34
f 65/66/35 66/65/35 68/83/35 67/84/35
f 67/84/36 68/83/36 38/85/36 37/86/36
f 37/87/37 39/88/37 41/89/37 43/90/37 45/91/37 47/92/37 49/93/37 51/94/37 53/95/37 55/96/37 57/97/37 59/98/37 61/99/37 63/100/37 65/101/37 67/102/37
o Cylinder.002_Cylinder.001
v 0.000000 0.890000 -0.035000
v 0.000000 0.910000 -0.035000
v 0.013394 0.890000 -0.032336
v 0.013394 0.910000 -0.032336
v 0.024749 0.890000 -0.024749
v 0.024749 0.910000 -0.024749
v 0.032336 0.890000 -0.013394
v 0.032336 0.910000 -0.013394
v 0.035000 0.890000 0.000000
v 0.035000 0.910000 0.000000
v 0.032336 0.890000 0.013394
v 0.032336 0.910000 0.013394
v 0.024749 0.890000 0.024749
v 0.024749 0.910000 0.024749
v 0.013394 0.890000 0.032336
v 0.013394 0.910000 0.032336
v 0.000000 0.890000 0.035000
v 0.000000 0.910000 0.035000
v -0.013394 0.890000 0.032336
v -0.013394 0.910000 0.032336
v -0.024749 0.890000 0.024749
v -0.024749 0.910000 0.024749
v -0.032336 0.890000 0.013394
v -0.032336 0.910000 0.013394
v -0.035000 0.890000 -0.000000
v -0.035000 0.910000 -0.000000
v -0.032336 0.890000 -0.013394
v -0.032336 0.910000 -0.013394
v -0.024749 0.890000 -0.024749
v -0.024749 0.910000 -0.024749
v -0.013394 0.890000 -0.032336
v -0.013394 0.910000 -0.032336
vt 1.000000 0.500000
vt 1.000000 1.000000
vt 0.937500 1.000000
vt 0.937500 0.500000
vt 0.875000 1.000000
vt 0.875000 0.500000
vt 0.812500 1.000000
vt 0.812500 0.500000
vt 0.750000 1.000000
vt 0.750000 0.500000
vt 0.687500 1.000000
vt 0.687500 0.500000
vt 0.625000 1.000000
vt 0.625000 0.500000
vt 0.562500 1.000000
vt 0.562500 0.500000
vt 0.500000 1.000000
vt 0.500000 0.500000
vt 0.437500 1.000000
vt 0.437500 0.500000
vt 0.375000 1.000000
vt 0.375000 0.500000
vt 0.312500 1.000000
vt 0.312500 0.500000
vt 0.250000 1.000000
vt 0.250000 0.500000
vt 0.187500 1.000000
vt 0.187500 0.500000
vt 0.125000 1.000000
vt 0.125000 0.500000
vt 0.341844 0.471731
vt 0.250000 0.490000
vt 0.158156 0.471731
vt 0.080294 0.419706
vt 0.028269 0.341844
vt 0.010000 0.250000
vt 0.028269 0.158156
vt 0.080294 0.080294
vt 0.158156 0.028269
vt 0.250000 0.010000
vt 0.341844 0.028269
vt 0.419706 0.080294
vt 0.471731 0.158156
vt 0.490000 0.250000
vt 0.471731 0.341844
vt 0.419706 0.419706
vt 0.062500 1.000000
vt 0.062500 0.500000
vt 0.000000 1.000000
vt 0.000000 0.500000
vt 0.750000 0.490000
vt 0.841844 0.471731
vt 0.919706 0.419706
vt 0.971731 0.341844
vt 0.990000 0.250000
vt 0.971731 0.158156
vt 0.919706 0.080294
vt 0.841844 0.028269
vt 0.750000 0.010000
vt 0.658156 0.028269
vt 0.580294 0.080294
vt 0.528269 0.158156
vt 0.510000 0.250000
vt 0.528269 0.341844
vt 0.580294 0.419706
vt 0.658156 0.471731
vn 0.1951 0.0000 -0.9808
vn 0.5556 0.0000 -0.8315
vn 0.8315 0.0000 -0.5556
vn 0.9808 0.0000 -0.1951
vn 0.9808 0.0000 0.1951
vn 0.8315 0.0000 0.5556
vn 0.5556 0.0000 0.8315
vn 0.1951 0.0000 0.9808
vn -0.1951 0.0000 0.9808
vn -0.5556 0.0000 0.8315
vn -0.8315 0.0000 0.5556
vn -0.9808 0.0000 0.1951
vn -0.9808 0.0000 -0.1951
vn -0.8315 0.0000 -0.5556
vn 0.0000 1.0000 -0.0000
vn -0.5556 0.0000 -0.8315
vn -0.1951 0.0000 -0.9808
vn 0.0000 -1.0000 -0.0000
usemtl None
s off
f 69/103/38 70/104/38 72/105/38 71/106/38
f 71/106/39 72/105/39 74/107/39 73/108/39
f 73/108/40 74/107/40 76/109/40 75/110/40
f 75/110/41 76/109/41 78/111/41 77/112/41
f 77/112/42 78/111/42 80/113/42 79/114/42
f 79/114/43 80/113/43 82/115/43 81/116/43
f 81/116/44 82/115/44 84/117/44 83/118/44
f 83/118/45 84/117/45 86/119/45 85/120/45
f 85/120/46 86/119/46 88/121/46 87/122/46
f 87/122/47 88/121/47 90/123/47 89/124/47
f 89/124/48 90/123/48 92/125/48 91/126/48
f 91/126/49 92/125/49 94/127/49 93/128/49
f 93/128/50 94/127/50 96/129/50 95/130/50
f 95/130/51 96/129/51 98/131/51 97/132/51
f 72/133/52 70/134/52 100/135/52 98/136/52 96/137/52 94/138/52 92/139/52 90/140/52 88/141/52 86/142/52 84/143/52 82/144/52 80/145/52 78/146/52 76/147/52 74/148/52
f 97/132/53 98/131/53 100/149/53 99/150/53
f 99/150/54 100/149/54 70/151/54 69/152/54
f 69/153/55 71/154/55 73/155/55 75/156/55 77/157/55 79/158/55 81/159/55 83/160/55 85/161/55 87/162/55 89/163/55 91/164/55 93/165/55 95/166/55 97/167/55 99/168/55
o Cube
v -0.007010 0.095794 -0.010933
v -0.007010 0.104206 -0.010933
v -0.007010 0.095794 -0.109067
v -0.007010 0.104206 -0.109067
v 0.007010 0.095794 -0.010933
v 0.007010 0.104206 -0.010933
v 0.007010 0.095794 -0.109067
v 0.007010 0.104206 -0.109067
vt 0.375000 0.000000
vt 0.625000 0.000000
vt 0.625000 0.250000
vt 0.375000 0.250000
vt 0.625000 0.500000
vt 0.375000 0.500000
vt 0.625000 0.750000
vt 0.375000 0.750000
vt 0.625000 1.000000
vt 0.375000 1.000000
vt 0.125000 0.500000
vt 0.125000 0.750000
vt 0.875000 0.500000
vt 0.875000 0.750000
vn -1.0000 0.0000 0.0000
vn 0.0000 0.0000 -1.0000
vn 1.0000 0.0000 0.0000
vn 0.0000 0.0000 1.0000
vn 0.0000 -1.0000 0.0000
vn 0.0000 1.0000 0.0000
usemtl None
s off
f 101/169/56 102/170/56 104/171/56 103/172/56
f 103/172/57 104/171/57 108/173/57 107/174/57
f 107/174/58 108/173/58 106/175/58 105/176/58
f 105/176/59 106/175/59 102/177/59 101/178/59
f 103/179/60 107/174/60 105/176/60 101/180/60
f 108/173/61 104/181/61 102/182/61 106/175/61
o Cube.001_Cube
v -0.007010 0.895794 -0.010933
v -0.007010 0.904206 -0.010933
v -0.007010 0.895794 -0.109067
v -0.007010 0.904206 -0.109067
v 0.007010 0.895794 -0.010933
v 0.007010 0.904206 -0.010933
v 0.007010 0.895794 -0.109067
v 0.007010 0.904206 -0.109067
vt 0.375000 0.000000
vt 0.625000 0.000000
vt 0.625000 0.250000
vt 0.375000 0.250000
vt 0.625000 0.500000
vt 0.375000 0.500000
vt 0.625000 0.750000
vt 0.375000 0.750000
vt 0.625000 1.000000
vt 0.375000 1.000000
vt 0.125000 0.500000
vt 0.125000 0.750000
vt 0.875000 0.500000
vt 0.875000 0.750000
vn -1.0000 0.0000 0.0000
vn 0.0000 0.0000 -1.0000
vn 1.0000 0.0000 0.0000
vn 0.0000 0.0000 1.0000
vn 0.0000 -1.0000 0.0000
vn 0.0000 1.0000 0.0000
usemtl None
s off
f 109/183/62 110/184/62 112/185/62 111/186/62
f 111/186/63 112/185/63 116/187/63 115/188/63
f 115/188/64 116/187/64 114/189/64 113/190/64
f 113/190/65 114/189/65 110/191/65 109/192/65
f 111/193/66 115/188/66 113/190/66 109/194/66
f 116/187/67 112/195/67 110/196/67 114/189/67
